Coordinates
version=1
nRows=46
nColumns=14
inDegrees=yes

Units are S.I. units (second, meters, Newtons, ...)
Angles are in degrees.

endheader
time	pelvis_tilt	pelvis_list	pelvis_rotation	pelvis_tx	pelvis_ty	pelvis_tz	hip_flexion_r	hip_adduction_r	hip_rotation_r	knee_angle_r	ankle_angle_r	subtalar_angle_r	mtp_angle_r
      0.51000000	    -14.52569364	     -0.49901369	     -6.66253064	     -0.03848992	      0.83801837	      0.06987232	     -2.91306379	      5.46989481	      1.98513145	    -19.40554911	      8.09470581	      4.34636656	      0.00000000
      0.52000000	    -14.43930197	     -0.02515716	     -6.29158837	     -0.02291085	      0.83784869	      0.06835057	     -2.54554178	      4.72154167	      1.75692754	    -21.85830504	      6.63242782	      4.91840417	      0.00000000
      0.53000000	    -14.33251215	      0.53970745	     -5.71176160	     -0.00748503	      0.83835494	      0.06650992	     -1.94962638	      3.82795446	      1.16482013	    -24.56070156	      4.93165546	      5.88017230	      0.00000000
      0.54000000	    -14.15622899	      1.28485168	     -5.00691946	      0.00810280	      0.83924191	      0.06455797	     -1.21090871	      2.69645206	      0.45776571	    -27.46575551	      2.40374989	      6.83731886	      0.00000000
      0.55000000	    -13.84815445	      2.04204468	     -4.21533826	      0.02376245	      0.84051363	      0.06236295	     -0.43639217	      1.44868061	     -0.47578747	    -30.53199604	     -0.73522468	      8.09484260	      0.00000000
      0.56000000	    -13.50346641	      2.76136444	     -3.32228376	      0.03921526	      0.84197438	      0.05990685	      0.41679053	      0.09602695	     -1.62440684	    -33.76298561	     -4.47632799	      9.75929974	      0.00000000
      0.57000000	    -13.18000411	      3.41586755	     -2.39007257	      0.05443080	      0.84350471	      0.05743557	      1.39020310	     -1.28952022	     -2.85703067	    -37.28138512	     -7.45266449	     11.03854182	      0.00000000
      0.58000000	    -12.93951944	      3.94311941	     -1.43732634	      0.06938723	      0.84499051	      0.05493719	      2.54186995	     -2.55925610	     -3.95603126	    -40.88466728	    -10.06732450	     11.85854516	      0.00000000
      0.59000000	    -12.83700418	      4.45347387	     -0.67215742	      0.08369691	      0.84636954	      0.05280112	      4.10728421	     -3.78487159	     -4.66283142	    -44.60199729	    -13.01234246	     12.31703104	      0.00000000
      0.60000000	    -12.74256454	      4.83014753	     -0.03782371	      0.09777348	      0.84774176	      0.05087813	      5.81008744	     -4.87115636	     -5.42606109	    -48.16799632	    -16.13796865	     12.10838595	      0.00000000
      0.61000000	    -12.62529712	      4.96313272	      0.45035315	      0.11155632	      0.84922071	      0.04910093	      7.63205532	     -5.72826647	     -6.06580879	    -51.64401910	    -18.91776161	     11.64618104	      0.00000000
      0.62000000	    -12.43661530	      4.87492015	      0.78396368	      0.12517409	      0.85077553	      0.04748438	      9.34356794	     -6.31561535	     -6.71861568	    -54.73954989	    -20.60546531	     10.57084039	      0.00000000
      0.63000000	    -12.18725340	      4.61084389	      0.97589427	      0.13872678	      0.85250377	      0.04606882	     10.96976741	     -6.66009757	     -7.36135627	    -57.52239830	    -20.29352931	      9.53622724	      0.00000000
      0.64000000	    -11.91905121	      4.25426345	      1.11297716	      0.15222186	      0.85442311	      0.04471764	     12.57484746	     -6.83347092	     -7.85268386	    -60.03103069	    -18.22047436	      9.31895725	      0.00000000
      0.65000000	    -11.77688982	      3.91874836	      1.21638463	      0.16554240	      0.85629084	      0.04346332	     14.34175204	     -6.93890474	     -8.20645906	    -62.24576715	    -15.42631784	      9.69422102	      0.00000000
      0.66000000	    -11.95473714	      3.81157946	      1.13539502	      0.17826690	      0.85768888	      0.04253056	     16.67456211	     -7.18855520	     -8.21822422	    -64.35605184	    -12.87003874	     10.16299660	      0.00000000
      0.67000000	    -12.25158542	      3.69173229	      1.08022679	      0.19100764	      0.85904151	      0.04164046	     19.12460683	     -7.35596333	     -8.22840518	    -66.04902636	    -10.91291895	     10.49226529	      0.00000000
      0.68000000	    -12.65121493	      3.61043606	      1.05634722	      0.20380820	      0.86037886	      0.04077394	     21.63025683	     -7.54449238	     -8.27347388	    -67.40464151	     -8.96218448	     11.00435869	      0.00000000
      0.69000000	    -13.07123899	      3.50955183	      1.05742347	      0.21665732	      0.86185499	      0.04002234	     24.04711449	     -7.62310968	     -8.36941571	    -68.32388533	     -6.75234707	     11.28695180	      0.00000000
      0.70000000	    -13.42963052	      3.34520842	      1.10493608	      0.22951260	      0.86359558	      0.03932160	     26.29662137	     -7.62220706	     -8.62943731	    -68.78540437	     -4.37217215	     11.41521269	      0.00000000
      0.71000000	    -13.67518717	      3.17703663	      1.17778772	      0.24237192	      0.86549810	      0.03862077	     28.31567105	     -7.55529833	     -8.91946241	    -68.80588202	     -2.18469490	     11.41880686	      0.00000000
      0.72000000	    -13.82881470	      3.01525401	      1.29482155	      0.25520642	      0.86746431	      0.03789569	     30.13565890	     -7.46095845	     -9.24777066	    -68.43846286	     -0.16601694	     11.24546093	      0.00000000
      0.73000000	    -13.95154025	      2.83338034	      1.46310961	      0.26810075	      0.86938681	      0.03718114	     31.83518490	     -7.30665315	     -9.52299229	    -67.68782907	      1.34729598	     11.07117229	      0.00000000
      0.74000000	    -14.04755811	      2.61090835	      1.66438300	      0.28115101	      0.87113161	      0.03656204	     33.37292229	     -7.02795930	     -9.75469248	    -66.52345071	      1.96848984	     10.86341224	      0.00000000
      0.75000000	    -14.06348137	      2.38791590	      1.84355909	      0.29414160	      0.87272977	      0.03611663	     34.75617393	     -6.64883465	     -9.87975595	    -65.03129294	      2.38891207	     10.48790133	      0.00000000
      0.76000000	    -14.04894581	      2.16238148	      2.02931686	      0.30712745	      0.87412023	      0.03576703	     35.98644266	     -6.24499560	    -10.06129105	    -63.21879531	      3.44170268	      9.99753087	      0.00000000
      0.77000000	    -14.05263543	      1.83762576	      2.26521205	      0.31993230	      0.87517115	      0.03558363	     37.10273672	     -5.69303290	    -10.22848762	    -61.00694203	      3.81386627	      9.49194924	      0.00000000
      0.78000000	    -13.99962281	      1.52357753	      2.46787486	      0.33281536	      0.87600571	      0.03560248	     38.00970688	     -5.09430006	    -10.31317137	    -58.47135821	      4.11605909	      9.17260929	      0.00000000
      0.79000000	    -13.89233721	      1.25991227	      2.62723587	      0.34572913	      0.87660316	      0.03578281	     38.70121612	     -4.50233616	    -10.32548877	    -55.64970945	      4.59030523	      9.16255773	      0.00000000
      0.80000000	    -13.76786604	      1.01011073	      2.72916161	      0.35862161	      0.87685481	      0.03619679	     39.26494291	     -3.83077569	    -10.17386421	    -52.49859793	      4.67302917	      9.09151101	      0.00000000
      0.81000000	    -13.64127147	      0.91654085	      2.84889330	      0.37163354	      0.87658108	      0.03656724	     39.62548610	     -3.49300940	    -10.16025647	    -49.56838942	      6.10791438	     10.05623233	      0.00000000
      0.82000000	    -13.56555475	      0.66984879	      2.87285515	      0.38454732	      0.87612067	      0.03727265	     40.20284545	     -2.76560551	    -10.05178126	    -46.03598578	      5.09567435	      8.61003452	      0.00000000
      0.83000000	    -13.53847781	      0.26571774	      2.85818878	      0.39748517	      0.87523696	      0.03844790	     40.36200419	     -1.35122022	     -8.56946847	    -40.84084282	      1.20865209	      5.53558028	      0.00000000
      0.84000000	    -13.46090631	      0.20878594	      2.97743282	      0.41070801	      0.87381048	      0.03908143	     40.44150442	     -1.02783442	     -8.19672282	    -37.28710618	      1.97313673	      6.65738059	      0.00000000
      0.85000000	    -13.41574064	      0.07951176	      3.11287662	      0.42394960	      0.87215268	      0.03990628	     40.46028459	     -0.50835813	     -7.63438757	    -33.23045581	      1.27467310	      5.76392625	      0.00000000
      0.86000000	    -13.42431965	      0.03249664	      3.31083444	      0.43720460	      0.87019285	      0.04072716	     40.41092443	     -0.13571754	     -7.20411148	    -28.90439898	      0.10425954	      4.63638539	      0.00000000
      0.87000000	    -13.49208153	      0.07757785	      3.62670268	      0.45055371	      0.86786487	      0.04146128	     40.39328951	      0.06274350	     -6.59176582	    -24.75661506	     -1.04508143	      3.48596845	      0.00000000
      0.88000000	    -13.67154029	      0.09284011	      4.07089850	      0.46401813	      0.86521961	      0.04221117	     40.41468298	      0.12779921	     -6.18280419	    -20.72821065	     -1.88236119	      2.53243199	      0.00000000
      0.89000000	    -13.96970711	      0.05081899	      4.63676909	      0.47749040	      0.86234469	      0.04299796	     40.58368853	      0.05348447	     -6.22087619	    -16.99375652	     -2.32076785	      1.92483216	      0.00000000
      0.90000000	    -14.26095220	      0.06399651	      5.08938554	      0.49096788	      0.85963190	      0.04397919	     40.81378153	     -0.05106949	     -6.52780671	    -13.65591900	     -2.43977967	      1.50738968	      0.00000000
      0.91000000	    -14.59140456	      0.06371892	      5.57445791	      0.50462067	      0.85678699	      0.04505180	     41.05285033	     -0.15021134	     -6.63046756	    -10.60101551	     -2.70985904	      0.69596769	      0.00000000
      0.92000000	    -14.92062169	      0.10749924	      6.12040610	      0.51848168	      0.85387146	      0.04613096	     41.21417176	     -0.31537057	     -6.35595097	     -7.81017648	     -3.20413138	     -0.87386909	      0.00000000
      0.93000000	    -15.25635052	      0.07046802	      6.65281090	      0.53239160	      0.85109384	      0.04718567	     41.44863305	     -0.46061671	     -6.16653574	     -5.62854160	     -3.75185650	     -2.91422423	      0.00000000
      0.94000000	    -15.53495705	     -0.02461464	      7.17354363	      0.54643110	      0.84844976	      0.04817503	     41.71255615	     -0.57366171	     -6.43077811	     -4.03391385	     -4.28659149	     -4.81984573	      0.00000000
      0.95000000	    -15.70453457	     -0.11854434	      7.66373141	      0.56064852	      0.84609869	      0.04897626	     41.89867919	     -0.71439015	     -6.67131010	     -3.11308753	     -4.68107927	     -6.51456161	      0.00000000
      0.96000000	    -15.73467961	     -0.23860378	      8.06073252	      0.57541258	      0.84410519	      0.04973625	     41.97844570	     -0.77360877	     -7.23813038	     -2.81044746	     -4.63349830	     -7.15172455	      0.00000000
